<?xml version="1.0" encoding="utf-8"?>
<!-- Generator: Adobe Illustrator 27.0.0, SVG Export Plug-In . SVG Version: 6.00 Build 0)  -->
<svg version="1.1" id="BACKGROUND" xmlns="http://www.w3.org/2000/svg" xmlns:xlink="http://www.w3.org/1999/xlink" x="0px" y="0px"
	 viewBox="0 0 140.87 122.09" style="enable-background:new 0 0 140.87 122.09;" xml:space="preserve">
<style type="text/css">
	.st0{fill:none;}
	.st1{fill:#CFDEE2;}
	.st2{fill:#212121;}
</style>
<g>
	<path class="st0" d="M64.61,32.53c-0.71-1.12-1.56-1.9-2.51-2.29L35.11,18.67l-0.34,1.03c-0.06,0.17-0.12,0.33-0.17,0.47
		c-0.11,0.27-0.17,0.58-0.17,0.89v58.57c0,1.02,0.36,2.09,1.07,3.17c0.7,1.07,1.56,1.85,2.56,2.31l2.75,1.18V29.56
		c0-0.32,0.06-0.62,0.17-0.89c0.06-0.14,0.11-0.3,0.17-0.47l0.34-1.03l24.18,10.36v-1.8C65.67,34.71,65.31,33.64,64.61,32.53z"/>
	<path class="st1" d="M70.62,97.2c0,0.92-0.18,1.72-0.56,2.45c-0.37,0.71-0.85,1.26-1.48,1.68c-0.3,0.2-0.66,0.36-1.08,0.5
		c-0.41,0.13-0.82,0.19-1.22,0.19c-0.37,0-0.73-0.04-1.06-0.12c-0.35-0.08-0.73-0.21-1.12-0.37L43.03,92.5
		c0.18,0.59,0.45,1.19,0.85,1.8c0.7,1.07,1.56,1.85,2.56,2.31l25.24,10.8l0.65,0.16c0.11,0.03,0.24,0.04,0.35,0.04
		c0.24,0,0.47-0.06,0.66-0.19c0.25-0.13,0.52-0.39,0.63-0.91c0.05-0.23,0.07-0.5,0.07-0.82V88.97h-3.42V97.2z"/>
	<path class="st1" d="M74.05,86.01V47.23c0-1.01-0.36-2.09-1.06-3.2c-0.68-1.07-1.47-1.8-2.36-2.22v44.2H74.05z"/>
	<path class="st1" d="M41.14,28.2c-0.06,0.17-0.12,0.33-0.17,0.47c-0.11,0.27-0.17,0.58-0.17,0.89v56.73l22.5,9.63l0.65,0.16
		c0.11,0.03,0.24,0.04,0.35,0.04c0.24,0,0.47-0.06,0.66-0.19c0.25-0.13,0.52-0.39,0.63-0.91c0.05-0.23,0.07-0.5,0.07-0.82V37.53
		L41.49,27.17L41.14,28.2z"/>
	<path class="st2" d="M86.67,58.63c-0.43,0-0.77,0.13-1.05,0.42c-0.29,0.29-0.42,0.62-0.42,1.06v19.52c0,0.91-0.34,1.71-1.01,2.37
		c-0.66,0.66-1.48,1.01-2.37,1.01h-9.77v2.95h9.77c1.71,0,3.14-0.61,4.39-1.85c1.24-1.25,1.85-2.71,1.85-4.48V60.11
		c0-0.43-0.13-0.77-0.42-1.05C87.34,58.77,87.04,58.63,86.67,58.63z"/>
	<path class="st2" d="M40.81,86.29l-2.75-1.18c-1-0.46-1.86-1.24-2.56-2.31c-0.71-1.08-1.07-2.15-1.07-3.17V21.06
		c0-0.32,0.06-0.62,0.17-0.89c0.06-0.14,0.11-0.3,0.17-0.47l0.34-1.03L62.1,30.23c0.95,0.4,1.79,1.17,2.51,2.29
		c0.7,1.11,1.06,2.19,1.06,3.2v1.8l2.81,1.2c0.05,0.02,0.1,0.05,0.14,0.08v-3.08c0-1.63-0.54-3.25-1.59-4.82
		c-1.06-1.57-2.34-2.69-3.8-3.31l-23.26-9.92h41.85c0.89,0,1.71,0.35,2.37,1.01c0.66,0.66,1.01,1.48,1.01,2.37v19.52
		c0,0.43,0.13,0.77,0.42,1.05c0.29,0.29,0.62,0.42,1.05,0.42c0.37,0,0.67-0.13,0.96-0.42c0.29-0.29,0.42-0.62,0.42-1.06V21.06
		c0-1.71-0.61-3.14-1.85-4.39c-1.25-1.25-2.68-1.85-4.39-1.85H37.91c-1.77,0-3.24,0.6-4.48,1.85c-1.24,1.24-1.85,2.68-1.85,4.39
		v58.57c0,1.57,0.52,3.17,1.55,4.74c1.03,1.57,2.33,2.72,3.84,3.39l4.06,1.74c-0.14-0.46-0.22-0.92-0.22-1.37V86.29z"/>
	<path class="st2" d="M68.62,83.01v-44.2c-0.05-0.02-0.09-0.06-0.14-0.08l-2.81-1.2V94.2c0,0.32-0.02,0.59-0.07,0.82
		c-0.11,0.53-0.38,0.79-0.63,0.91c-0.19,0.12-0.42,0.19-0.66,0.19c-0.12,0-0.24-0.02-0.35-0.04l-0.65-0.16l-22.5-9.63v1.84
		c0,0.45,0.08,0.9,0.22,1.37l21.09,9.03c0.39,0.17,0.76,0.29,1.12,0.37c0.33,0.08,0.69,0.12,1.06,0.12c0.4,0,0.82-0.06,1.22-0.19
		c0.42-0.13,0.78-0.3,1.08-0.5c0.63-0.42,1.11-0.97,1.48-1.68c0.37-0.72,0.56-1.52,0.56-2.45v-8.24h3.42v-2.95H68.62z"/>
	<path class="st2" d="M119.39,49.29l-14.71-14.62c-0.25-0.29-0.55-0.42-0.96-0.42c-0.41,0-0.71,0.13-0.96,0.42l-0.04,0.05
		l-0.05,0.04c-0.29,0.25-0.42,0.55-0.42,0.96c0,0.41,0.13,0.71,0.47,1.01l12.18,12.18H81.81c-0.43,0-0.77,0.13-1.06,0.42
		c-0.29,0.29-0.42,0.62-0.42,1.06c0,0.37,0.13,0.67,0.42,0.96c0.29,0.29,0.62,0.42,1.06,0.42h33.08l-12.18,12.18
		c-0.32,0.32-0.47,0.66-0.47,1.05c0,0.38,0.13,0.66,0.47,0.96c0.16,0.16,0.33,0.29,0.51,0.36c0.15,0.07,0.32,0.1,0.5,0.1
		s0.34-0.03,0.5-0.11c0.17-0.07,0.34-0.2,0.51-0.37l14.62-14.52c0.29-0.33,0.42-0.68,0.42-1.1
		C119.77,49.92,119.63,49.57,119.39,49.29z"/>
</g>
</svg>
