<?xml version="1.0" standalone="no"?>
<!DOCTYPE svg PUBLIC "-//W3C//DTD SVG 20010904//EN"
 "http://www.w3.org/TR/2001/REC-SVG-20010904/DTD/svg10.dtd">
<svg version="1.0" xmlns="http://www.w3.org/2000/svg"
 width="2000.000000pt" height="2024.000000pt" viewBox="0 0 2000.000000 2024.000000"
 preserveAspectRatio="xMidYMid meet">

<g transform="translate(0.000000,2024.000000) scale(0.100000,-0.100000)"
fill="#000000" stroke="none">
<path d="M0 16315 l0 -3855 80 0 80 0 2 3763 3 3762 9835 0 9835 0 3 -3762 2
-3763 80 0 80 0 0 3855 0 3855 -10000 0 -10000 0 0 -3855z"/>
<path d="M495 11949 c-196 -21 -342 -74 -407 -148 -17 -19 -43 -60 -57 -91
-26 -54 -26 -57 -26 -295 0 -234 1 -241 24 -289 66 -133 194 -190 481 -216 63
-5 374 -14 690 -20 666 -12 747 -19 821 -71 54 -38 64 -78 64 -259 0 -193 -12
-238 -76 -294 -85 -72 -217 -86 -854 -85 -513 0 -675 8 -758 39 -70 26 -120
80 -142 152 -13 42 -33 196 -35 266 0 9 -29 12 -110 12 l-110 0 0 -123 c0
-356 138 -497 530 -539 164 -17 1116 -17 1270 1 214 24 341 71 417 154 86 94
107 173 107 422 1 237 -16 307 -93 388 -62 66 -147 100 -305 122 -114 17 -259
22 -946 35 -575 12 -641 20 -706 92 -35 38 -48 95 -48 218 1 197 38 269 156
305 92 27 350 37 908 33 610 -5 611 -5 685 -82 49 -51 65 -100 74 -226 l6 -95
119 -3 119 -3 -6 118 c-12 244 -85 377 -236 434 -135 50 -153 52 -831 54 -349
2 -675 -1 -725 -6z"/>
<path d="M10840 10965 l0 -955 683 0 c752 0 1034 10 1173 39 266 55 363 191
364 505 0 173 -35 286 -116 376 -42 46 -136 96 -200 106 -53 8 -48 16 21 34
69 19 152 102 186 185 22 54 24 74 24 210 -1 133 -3 157 -24 210 -32 81 -115
164 -195 194 -132 49 -168 51 -1072 51 l-844 0 0 -955z m1644 755 c192 -15
239 -52 256 -203 17 -150 -18 -276 -92 -324 -85 -57 -82 -56 -860 -61 l-718
-3 0 294 c0 161 3 297 7 300 10 11 1271 8 1407 -3z m-39 -800 c176 -16 270
-57 327 -142 40 -59 51 -109 50 -226 -2 -186 -47 -271 -162 -307 -88 -26 -373
-36 -1005 -33 l-580 3 -3 358 -2 357 637 0 c351 -1 683 -5 738 -10z"/>
<path d="M6620 11143 c1 -751 3 -798 53 -906 74 -162 212 -217 548 -218 297
-1 420 28 499 118 64 74 100 221 100 414 l0 89 -104 0 -103 0 -5 -139 c-5
-121 -8 -146 -29 -188 -36 -71 -63 -83 -225 -94 -152 -11 -330 1 -386 24 -18
8 -43 25 -54 38 -46 52 -48 70 -52 532 l-3 437 440 0 441 0 0 100 0 100 -440
0 -440 0 0 195 0 195 -120 0 -120 0 0 -697z"/>
<path d="M3103 11459 c-276 -33 -367 -104 -392 -306 -5 -43 -7 -81 -5 -85 3
-4 56 -8 119 -8 l114 0 7 56 c9 72 39 109 107 129 75 23 430 37 612 25 289
-19 342 -74 362 -372 6 -96 5 -100 -13 -95 -91 28 -515 51 -744 41 -383 -16
-513 -60 -580 -197 -54 -110 -60 -297 -14 -431 22 -63 88 -130 160 -162 108
-48 210 -58 554 -59 328 0 409 7 517 45 30 11 70 31 88 45 l34 25 3 -47 3 -48
119 -3 118 -3 -5 488 c-5 519 -10 578 -58 706 -30 80 -103 158 -182 196 -117
55 -189 64 -537 67 -173 1 -347 -2 -387 -7z m927 -956 c0 -152 -10 -214 -38
-247 -50 -57 -190 -76 -557 -75 -487 0 -548 25 -549 229 -1 153 31 200 154
226 38 9 200 13 523 13 l467 1 0 -147z"/>
<path d="M4941 11460 c-36 -5 -97 -19 -135 -30 -59 -18 -79 -30 -122 -74 -66
-68 -84 -129 -84 -287 0 -281 75 -364 354 -389 61 -6 296 -14 521 -19 435 -8
455 -11 498 -59 28 -31 42 -153 29 -243 -14 -90 -40 -121 -127 -145 -49 -14
-121 -18 -407 -21 -381 -5 -493 3 -568 40 -49 25 -64 55 -75 150 l-6 47 -111
0 -111 0 6 -87 c13 -213 83 -288 310 -331 136 -25 847 -25 987 1 239 44 326
143 337 383 9 186 -27 323 -100 379 -87 65 -233 85 -646 85 -372 1 -547 12
-598 36 -52 26 -66 70 -61 196 6 158 19 165 358 179 323 13 648 0 713 -29 56
-25 77 -63 77 -142 l0 -50 115 0 115 0 0 53 c0 72 -18 163 -40 207 -24 47 -55
75 -113 100 -105 47 -165 52 -622 55 -236 2 -459 -1 -494 -5z"/>
<path d="M8550 11460 c-208 -25 -315 -80 -361 -185 -14 -32 -39 -163 -39 -206
0 -5 52 -9 119 -9 l118 0 7 52 c17 127 59 144 369 158 255 12 469 0 549 -30
113 -42 150 -120 165 -342 6 -96 5 -100 -13 -95 -106 33 -543 53 -809 37 -262
-15 -361 -38 -450 -105 -82 -63 -127 -236 -105 -404 26 -194 113 -277 334
-319 135 -25 693 -25 818 1 100 20 150 39 196 73 l32 25 0 -51 0 -51 118 3
117 3 3 390 c5 658 -21 812 -155 935 -56 51 -118 80 -232 107 -78 18 -655 27
-781 13z m930 -957 c0 -208 -14 -247 -97 -285 -64 -28 -283 -41 -593 -35 -419
9 -454 27 -454 232 0 116 15 159 67 190 65 39 123 43 610 44 l467 1 0 -147z"/>
<path d="M13843 11460 c-277 -35 -367 -105 -392 -307 -5 -43 -7 -81 -5 -85 3
-4 56 -8 119 -8 l114 0 7 56 c9 72 39 109 107 129 75 23 430 37 612 25 289
-19 342 -74 362 -372 6 -96 5 -100 -13 -95 -91 28 -515 51 -744 41 -383 -16
-513 -60 -580 -197 -54 -110 -60 -297 -14 -431 22 -63 88 -130 160 -162 108
-48 210 -58 554 -59 328 0 409 7 517 45 30 11 70 31 88 45 l34 25 3 -47 3 -48
119 -3 118 -3 -5 488 c-5 519 -10 577 -58 707 -31 84 -121 174 -203 205 -129
48 -173 53 -511 56 -176 2 -352 -1 -392 -5z m927 -957 c0 -152 -10 -214 -38
-247 -50 -57 -190 -76 -557 -75 -377 0 -484 20 -530 99 -16 29 -20 53 -20 135
1 116 16 160 68 190 65 39 123 43 610 44 l467 1 0 -147z"/>
<path d="M17613 11459 c-101 -12 -196 -35 -242 -58 -90 -47 -146 -150 -153
-281 l-2 -55 116 -3 116 -3 7 56 c16 121 65 142 368 155 257 12 469 0 551 -30
64 -24 116 -78 135 -139 15 -52 30 -171 31 -244 0 -51 -2 -58 -17 -53 -89 27
-516 51 -733 41 -330 -15 -458 -44 -539 -126 -67 -67 -92 -151 -93 -306 0
-257 94 -362 363 -405 113 -18 665 -18 767 0 95 16 175 45 217 77 l34 25 3
-47 3 -48 119 -3 118 -3 -5 488 c-5 517 -10 581 -58 707 -28 77 -104 158 -182
195 -117 55 -189 64 -537 67 -173 1 -347 -2 -387 -7z m927 -956 c0 -152 -10
-214 -38 -247 -50 -57 -190 -76 -557 -75 -491 0 -550 25 -549 240 0 105 14
143 66 182 54 40 119 45 611 46 l467 1 0 -147z"/>
<path d="M19748 11459 c-201 -17 -280 -54 -360 -163 l-28 -39 0 96 0 97 -120
0 -120 0 0 -720 0 -721 118 3 117 3 5 535 c5 502 6 537 24 574 46 91 135 121
424 138 l192 12 0 98 0 98 -82 -1 c-46 -1 -122 -5 -170 -10z"/>
<path d="M15400 11355 l0 -95 562 -2 562 -3 -590 -511 c-324 -281 -595 -518
-602 -526 -9 -11 -12 -44 -10 -109 l3 -94 753 -3 752 -2 0 95 0 95 -592 2
-591 3 591 520 592 519 0 103 0 103 -715 0 -715 0 0 -95z"/>
<path d="M7 9493 c-15 -14 -7 -43 12 -43 10 0 30 -9 45 -21 l26 -20 0 -398 c0
-436 0 -433 -60 -446 -23 -5 -30 -12 -30 -31 0 -20 5 -24 28 -24 45 0 123 -43
197 -109 98 -86 171 -121 252 -121 51 0 66 4 81 20 9 12 29 33 45 48 34 34 36
80 5 109 -38 34 -55 35 -61 4 -22 -109 -179 -105 -277 7 -68 76 -70 94 -70
539 l0 394 25 24 c15 16 36 25 55 25 31 0 39 17 18 38 -17 17 -99 15 -126 -3
-19 -14 -24 -14 -51 0 -30 15 -102 21 -114 8z"/>
<path d="M13722 9488 c-21 -21 -13 -38 17 -38 16 0 39 -9 52 -19 l24 -19 0
-402 0 -402 -28 -24 c-15 -13 -39 -24 -53 -24 -19 0 -24 -5 -24 -25 0 -22 4
-25 38 -25 55 -1 107 -28 202 -109 111 -94 166 -121 245 -121 63 0 105 18 105
45 0 8 9 19 21 25 46 25 40 99 -11 125 -30 16 -40 11 -40 -17 0 -11 -13 -33
-29 -49 -73 -73 -233 -4 -292 126 -17 37 -19 75 -19 455 0 228 4 420 8 426 11
16 48 34 71 34 23 0 28 19 9 38 -17 17 -100 15 -126 -4 -20 -14 -24 -14 -44 0
-26 19 -109 21 -126 4z"/>
<path d="M16797 9479 c-76 -26 -122 -56 -174 -112 -90 -97 -118 -190 -117
-387 1 -199 34 -308 98 -324 17 -4 26 -15 31 -36 9 -41 65 -87 128 -104 295
-84 530 57 593 355 12 54 15 106 11 194 -7 177 -43 270 -117 307 -20 10 -37
28 -40 40 -7 27 -58 64 -109 78 -65 18 -239 12 -304 -11z m269 -67 c115 -59
174 -196 174 -407 0 -182 -43 -310 -127 -385 -88 -77 -207 -89 -310 -30 -119
68 -184 246 -170 469 12 196 82 322 206 368 53 20 176 12 227 -15z"/>
<path d="M19837 9479 c-9 -5 -24 -24 -33 -42 -15 -27 -16 -58 -10 -247 3 -118
9 -250 13 -293 l6 -78 41 3 41 3 3 90 c1 50 6 170 11 267 9 192 18 222 66 234
35 9 32 40 -5 59 -33 17 -106 19 -133 4z"/>
<path d="M8699 9213 c-35 -92 -80 -143 -125 -143 -20 0 -24 -5 -24 -30 0 -28
2 -30 40 -30 l40 0 0 -237 c0 -263 7 -307 48 -326 15 -7 36 -22 47 -34 18 -20
43 -27 88 -24 22 1 70 48 62 61 -3 6 -15 6 -29 0 -35 -13 -65 -1 -84 34 -14
26 -17 67 -20 271 l-3 240 61 1 c48 0 65 5 81 21 38 38 5 82 -47 63 -14 -6
-41 -10 -60 -10 l-34 0 0 85 c0 70 -3 85 -15 85 -9 0 -20 -12 -26 -27z"/>
<path d="M2951 9065 c-127 -36 -195 -133 -195 -275 1 -95 29 -164 91 -221 62
-57 104 -73 193 -72 87 0 132 16 191 70 60 54 82 104 87 199 5 96 -12 160 -58
216 -64 77 -199 114 -309 83z m177 -71 c15 -11 38 -42 52 -70 21 -42 25 -62
25 -140 -1 -77 -4 -98 -26 -140 -33 -64 -77 -94 -139 -94 -96 0 -157 75 -167
204 -13 170 55 272 175 263 31 -2 64 -12 80 -23z"/>
<path d="M5857 9066 c-70 -19 -125 -63 -161 -126 -29 -51 -31 -62 -31 -150 0
-83 3 -101 27 -145 53 -100 136 -149 253 -149 57 0 81 5 127 27 106 52 152
134 152 267 0 98 -14 138 -68 198 -69 76 -193 108 -299 78z m163 -67 c57 -32
83 -87 88 -185 6 -108 -15 -180 -63 -223 -41 -36 -72 -45 -124 -38 -56 7 -87
32 -118 95 -47 96 -35 259 25 326 43 48 131 59 192 25z"/>
<path d="M19795 8655 c-52 -51 -16 -145 54 -145 45 0 85 39 85 83 0 77 -86
116 -139 62z"/>
<path d="M0 3925 l0 -3855 10000 0 10000 0 0 3855 0 3855 -80 0 -80 0 -2
-3762 -3 -3763 -9835 0 -9835 0 -3 3763 -2 3762 -80 0 -80 0 0 -3855z"/>
</g>
</svg>
